Coordinates
version=1
nRows=8
nColumns=34
inDegrees=yes

Units are S.I. units (second, meters, Newtons, ...)
If the header above contains a line with 'inDegrees', this indicates whether rotational values are in degrees (yes) or radians (no).

endheader
time	pelvis_tilt	pelvis_list	pelvis_rotation	pelvis_tx	pelvis_ty	pelvis_tz	hip_flexion_r	hip_adduction_r	hip_rotation_r	knee_angle_r	ankle_angle_r	subtalar_angle_r	mtp_angle_r	hip_flexion_l	hip_adduction_l	hip_rotation_l	knee_angle_l	ankle_angle_l	subtalar_angle_l	mtp_angle_l	lumbar_extension	lumbar_bending	lumbar_rotation	arm_flex_r	arm_add_r	arm_rot_r	elbow_flex_r	pro_sup_r	arm_flex_l	arm_add_l	arm_rot_l	elbow_flex_l	pro_sup_l
      0.00000000	     -0.75860181	     -8.28530042	    -48.10361053	      1.57337280	      0.95333479	      3.89576979	     34.53663695	     19.12231428	      4.33615795	     31.19135318	     -2.81413736	      3.43243093	      0.00000000	     27.58859457	     16.27221212	      1.79891746	     28.51629712	     -0.04300116	    -17.84851506	      0.00000000	    -19.04651461	     -1.61273820	     58.75127773	     28.91028096	     27.08585851	     23.72583075	     35.65262992	     98.74129188	      0.08915896	     54.67074918	     77.93140236	     25.55287904	     69.37470184
      0.01666670	     -0.72424514	     -8.32216199	    -48.02012023	      1.57366351	      0.95343475	      3.89649062	     34.52134545	     19.14163875	      4.34967824	     31.25640978	     -2.82289987	      3.43981730	      0.00000000	     27.53812543	     16.26508878	      1.80379660	     28.57888000	     -0.06976070	    -17.84889559	      0.00000000	    -18.96684460	     -1.62682408	     58.76787666	     28.91512952	     27.07589319	     23.71688227	     35.64413642	     98.74526582	      0.13830222	     54.72183907	     77.92417851	     25.58060897	     69.37204222
      0.03333330	     -0.08209499	     -8.02687769	    -47.45537081	      1.57224209	      0.95432107	      3.89642236	     34.50003786	     18.41239530	      4.42356652	     31.60969763	     -3.05403260	      3.01333112	      0.00000000	     27.45669105	     16.99143826	      1.69878037	     28.65385672	     -1.03696832	    -18.10396536	      0.00000000	    -19.33935077	     -2.55950919	     57.58498752	     29.77496921	     27.21432349	     24.05124782	     35.18152030	     99.20671457	      1.78365759	     54.69507762	     77.75719282	     25.59388245	     69.20509746
      0.05000000	      0.07701487	     -7.91739026	    -46.86378323	      1.57180790	      0.95523998	      3.89661331	     34.46651008	     17.98694493	      4.11396191	     31.47001744	     -3.21240462	      2.95402197	      0.00000000	     27.75253859	     17.10369958	      0.99799286	     29.18415965	     -1.98852932	    -17.82496515	      0.00000000	    -19.33398279	     -2.83348571	     56.87902728	     30.20675974	     27.30488152	     23.77711838	     35.33765844	     99.33360017	      2.29470538	     54.66875161	     77.43823349	     25.48692633	     69.10845353
      0.06666670	      0.25215774	     -7.57309053	    -46.32653651	      1.57119250	      0.95550252	      3.89669077	     34.71511972	     17.42521133	      3.86264539	     31.55882012	     -3.39421268	      2.89752784	      0.00000000	     28.14694857	     17.46436189	      0.68004902	     29.54063455	     -2.47127883	    -17.53220025	      0.00000000	    -19.20376064	     -3.37438940	     55.63837073	     30.66691806	     27.81636207	     23.59135909	     35.06729753	     99.64353227	      3.14205486	     54.61702398	     76.49980070	     25.30530716	     68.88540140
      0.08333330	      0.26496458	     -7.45258147	    -46.14852991	      1.57046868	      0.95625535	      3.89550688	     34.61373897	     17.21728689	      3.88590359	     31.04687179	     -3.59025258	      3.00428351	      0.00000000	     28.56257443	     17.51126333	      0.46431221	     29.87400905	     -3.24707246	    -17.33117577	      0.00000000	    -19.27771862	     -3.55362419	     55.22743800	     30.97419011	     27.62165756	     23.45799000	     35.09922437	     99.72458950	      3.51314405	     54.66270061	     76.13714594	     25.19427269	     68.81872205
      0.10000000	      0.18545178	     -7.29824882	    -45.80865598	      1.57034862	      0.95608259	      3.89403552	     34.99740512	     16.78460534	      3.07439716	     31.14527832	     -3.85706912	      3.26279167	      0.00000000	     28.95923618	     17.56334693	      0.14471371	     30.07200140	     -3.88897719	    -16.88224503	      0.00000000	    -19.29311566	     -3.75946953	     53.77678245	     31.34633922	     28.23999442	     23.63281137	     34.20692268	    100.13918476	      4.37259832	     54.56871667	     74.99904725	     24.83980693	     68.57544186
      0.11666670	      0.03142283	     -7.47742467	    -45.56289905	      1.57131893	      0.95642038	      3.89424336	     34.80120191	     16.84382540	      2.82116726	     30.86312805	     -3.53224197	      3.26620825	      0.00000000	     28.97148264	     17.16136035	     -0.59298875	     30.14709631	     -4.38917545	    -17.03831692	      0.00000000	    -19.16356798	     -3.75676580	     53.13596451	     31.42835905	     28.58890667	     23.65261003	     34.15582043	    100.20414951	      4.25441201	     54.33253382	     74.95856632	     24.62745418	     68.54458052
